<svg version="1.1" xmlns="http://www.w3.org/2000/svg" xmlns:xlink="http://www.w3.org/1999/xlink" x="0px" y="0px"
	 viewBox="0 0 800 800" style="enable-background:new 0 0 800 800;" xml:space="preserve">
<g id="Layer_1">
	<rect style="fill:#FFFFFF;" width="800" height="800"/>
</g>
<g id="Layer_2">
	<g>
		<rect x="10.028" y="10.028" style="fill-rule:evenodd;clip-rule:evenodd;fill:#FEFEFE;" width="779.999" height="779.999"/>
		<path style="fill-rule:evenodd;clip-rule:evenodd;fill:#E1EFFA;" d="M393.929,347.179c-47.44,0-85.899,38.459-85.899,85.899
			c0,47.666,38.459,86.129,85.899,86.129c47.671,0,86.126-38.463,86.126-86.129C480.055,385.638,441.6,347.179,393.929,347.179
			L393.929,347.179z"/>
		<path style="fill-rule:evenodd;clip-rule:evenodd;fill:#2A445D;" d="M439.758,461.172c-0.689-1.381-2.768-2.07-5.299-1.84
			c-0.461,0-1.15,0.228-1.842,0.459c-2.998,0.92-18.422,6.221-18.652,6.221l-0.228,0.23l0,0c1.84,1.609,2.76,3.221,2.301,4.371
			c-0.461,1.84-2.992,2.998-7.141,3.459c-3.682,0.23-8.291,0-13.817-1.158c0.69,0,1.381,0,1.841,0c3.915,0,7.604,0,10.596,0
			c4.371-0.461,6.449-1.381,6.91-3.221c0-0.922-0.689-1.842-2.078-2.762c-1.842-0.689-5.293-1.15-8.521-1.84
			c-2.301-0.23-4.602-0.461-5.982-0.93c-5.3-1.379-10.825-2.99-17.271-2.301c-0.925,0-2.075,0.23-2.995,0.23
			c-4.836,0.92-9.671,2.07-14.741,3.459l-0.69,0.23l7.601,10.592c1.15-0.23,2.535-0.461,3.916-0.689c1.841,0,3.455,0,5.065,0.229
			c2.075,0.23,7.141,1.381,11.977,2.301c5.065,1.15,10.131,2.072,11.972,2.301c0.92,0.23,2.078,0.23,2.998,0
			c2.531,0,5.063-1.379,7.602-2.76c0.689-0.461,1.381-0.691,2.07-1.15l22.103-11.973
			C439.988,463.242,439.988,461.861,439.758,461.172L439.758,461.172z"/>
		<path style="fill-rule:evenodd;clip-rule:evenodd;fill:#FF6D3A;" d="M348.56,465.32h9.901c0.46,0,1.154,0.23,1.384,0.691
			l9.441,13.582c0.23,0.461,0.23,0.691-0.229,0.691h-9.901c-0.465,0-1.154-0.23-1.385-0.691l-9.441-13.582
			C348.1,465.551,348.329,465.32,348.56,465.32L348.56,465.32z"/>
		<path style="fill-rule:evenodd;clip-rule:evenodd;fill:#FF6D3A;" d="M377.117,410.275c3.221,0,5.756,3,5.756,6.221
			c-0.23,2.992-3.225,5.76-6.216,5.76c-3.226-0.23-5.761-2.998-5.53-6.449C371.357,412.578,373.892,410.047,377.117,410.275
			L377.117,410.275z"/>
		<path style="fill-rule:evenodd;clip-rule:evenodd;fill:#FF6D3A;" d="M417.188,384.483c-0.23,4.376-3.682,8.061-8.291,8.061
			c-4.602,0-8.061-3.915-8.061-8.521c0.23-4.605,3.688-8.061,8.29-7.831C413.506,376.192,417.188,379.878,417.188,384.483
			L417.188,384.483z"/>
		<path style="fill-rule:evenodd;clip-rule:evenodd;fill:#FF6D3A;" d="M398.534,408.435c-0.69,0.92-1.614,1.84-2.074,2.99
			c-2.762,5.99-7.367,10.6-11.746,14.973c-1.381,1.379-1.841,2.76-1.841,4.379c0,8.061,0,15.883,0,23.943c0,1.619,0,3.23-2.07,3.459
			c-2.306,0-2.766-1.609-2.766-3.459c0-3.91,0.23-7.83,0-11.74c0-0.922,0.69-2.762-1.15-2.762c-1.614,0-1.154,1.609-1.154,2.531
			c0,3.91,0,7.6,0,11.512c0,1.617,0.23,3.918-2.53,3.918c-2.535-0.228-2.075-2.301-2.075-3.918c0-7.141,0-14.273-0.231-21.414
			c0-1.15,0.461-2.531-1.38-4.609c0,3.459,0,5.99,0,8.521c0,1.381,0.229,3.229-1.845,3.229c-2.07-0.23-1.841-1.848-1.841-2.998
			c0-2.992,0-5.752,0-8.521c0-2.992,1.381-4.602,4.836-4.602c2.535,0.23,5.065,0,7.601,0c4.605,0,6.216-1.611,8.52-5.76
			c3.916-7.602,8.061-14.971,13.356-21.878c1.611-2.07,3.682-3.455,6.221-0.92c1.609,1.38,3.91,1.38,5.291-0.23
			c2.309-1.845,3.689-0.92,5.301,0.46c2.301,2.305,3.91,4.836,5.299,7.598c2.531,3.918,5.063,8.061,7.594,11.979
			c1.158,1.842,2.539,4.143,0,5.752c-2.301,1.389-3.221-1.15-4.373-2.76c-2.07-3.221-3.91-6.682-6.68-9.672
			c1.611,5.301,3.228,10.361,4.609,15.662c1.381,4.602,0.92,5.752-4.148,5.521c-2.531,0-2.992,0.928-2.992,3.229
			c0.23,6.68,0,13.354,0,20.033c0.23,2.301,0.23,5.07-2.99,5.07c-3,0-2.77-2.77-2.77-4.84c0-6.68,0-13.123-0.23-19.803
			c0-1.15,1.15-3.459-1.15-3.459c-2.529,0-1.379,2.078-1.379,3.228c-0.23,6.91-0.23,13.813-0.23,20.492
			c0,2.072-0.23,3.92-2.301,4.381c-3,0.459-3.459-1.611-3.689-3.92c0-6.91,0-13.813,0-20.723c0.23-2.762-0.69-3.92-3.451-3.689
			c-4.146,0.23-4.84-0.92-3.685-4.832c1.381-5.299,2.991-10.592,4.605-15.891C398.765,408.666,398.534,408.666,398.534,408.435
			L398.534,408.435z"/>
		<path style="fill-rule:evenodd;clip-rule:evenodd;fill:#20D9DE;" d="M632.051,347.179c47.435,0,85.898,38.459,85.898,85.899
			c0,47.666-38.463,86.129-85.898,86.129c-47.676,0-86.131-38.463-86.131-86.129C545.92,385.638,584.375,347.179,632.051,347.179
			L632.051,347.179z"/>
		<path style="fill-rule:evenodd;clip-rule:evenodd;fill:#FF6D3A;" d="M631.129,401.525c2.072,0,4.143,0,6.221,0
			c0.92,0,1.381-0.23,1.381-1.381c0-0.46,0-1.15,0-1.61c0-1.614-0.461-2.305-2.07-2.074c-3.69,0-7.141,0-10.83,0
			c-1.381-0.23-2.07,0.23-1.842,1.845c0,0.46,0,1.15,0,1.84c-0.229,1.15,0.461,1.381,1.381,1.381
			C627.441,401.525,629.289,401.525,631.129,401.525L631.129,401.525z M629.519,432.848v-5.76h-5.76v-3.912h5.76v-5.529h3.682v5.529
			h5.76v3.912h-5.76v5.76H629.519z M631.129,448.049c-8.291,0-16.811,0-25.102,0c-3.912,0-5.529-1.617-5.529-5.299
			c0-5.301,0-10.592,0-15.662c0-1.611,0.459-2.07,1.848-1.84c3.682,0,7.363,0,10.822,0c1.381-0.23,1.84,0.229,2.07,1.609
			c0.92,8.291,7.83,14.512,16.121,14.512s15.201-6.221,15.893-14.512c0.228-1.15,0.459-1.84,1.84-1.609c3.682,0,7.6,0,11.512,0
			c1.15,0,1.619,0.229,1.619,1.381c-0.238,5.529,0,11.281-0.238,16.811c0,2.992-1.84,4.609-4.832,4.609
			C648.631,448.049,639.881,448.049,631.129,448.049L631.129,448.049z M651.162,401.525c2.301,0,4.381,0,6.451,0
			c2.531,0,4.371,1.84,4.371,4.379c0.238,4.371,0,8.752,0.238,12.893c0,1.15-0.469,1.381-1.619,1.381c-4.141,0-8.522,0-12.662,0
			c-0.92,0-1.381-0.23-1.611-1.15c-2.998-6.449-8.061-9.902-14.971-9.902c-7.141,0-12.209,3.453-14.971,9.902
			c-0.461,0.92-0.92,1.15-1.84,1.15c-4.15,0-8.521,0-12.672,0c-1.15,0-1.379-0.461-1.379-1.611c0-4.141,0-8.061,0-12.201
			c0-3,1.848-4.84,4.838-4.84c3.912,0,8.063,0,12.203,0c1.611,0,2.078-0.46,1.848-2.07c0-1.15,0-2.306,0-3.686
			c0.23-2.535,1.842-4.376,4.373-4.376c5.068,0,9.9,0,14.971,0c2.762,0.23,4.371,1.841,4.371,4.605
			c0.23,1.845-0.689,4.146,0.691,5.296c1.148,0.691,3.459,0.23,5.299,0.23C649.781,401.525,650.473,401.525,651.162,401.525
			L651.162,401.525z"/>
		<path style="fill-rule:evenodd;clip-rule:evenodd;fill:#2A445D;" d="M578.394,460.711h11.512c0.689,0,1.379,0.461,1.609,0.922
			l11.061,15.891c0.459,0.689,0.23,0.92-0.23,0.92h-11.75c-0.461,0-1.15-0.23-1.381-0.92l-11.281-15.891
			C577.703,461.172,577.703,460.711,578.394,460.711L578.394,460.711z M685.935,455.879c-0.689-1.617-3.221-2.537-6.211-2.309
			c-0.699,0.23-1.619,0.23-2.309,0.461c-3.451,1.15-21.645,7.371-21.873,7.602h-0.461l0.231,0.228c2.07,1.842,2.99,3.69,2.531,5.07
			c-0.461,2.301-3.453,3.682-8.522,4.141c-4.143,0.23-9.672,0-16.121-1.379c0.689,0,1.379,0,2.301,0.229
			c4.609,0,8.98,0,12.439-0.229c5.063-0.461,7.602-1.611,8.061-3.682c0-1.381-0.69-2.309-2.539-3.228
			c-2.07-0.922-5.982-1.611-10.131-2.301c-2.531-0.461-5.063-0.691-6.91-1.15c-6.443-1.611-12.893-3.453-20.494-2.762
			c-1.15,0.23-2.301,0.23-3.451,0.459c-5.76,0.922-11.52,2.303-17.271,4.143h-0.92l8.98,12.67c1.381-0.23,2.992-0.697,4.602-0.697
			c2.07-0.23,4.15-0.23,5.99,0c2.301,0.467,8.522,1.617,14.281,2.768c5.982,1.381,11.742,2.531,13.813,2.762
			c1.381,0.23,2.531,0.23,3.92,0.23c2.76-0.23,5.982-1.842,8.75-3.451c0.922-0.461,1.842-0.922,2.531-1.381l26.023-14.051
			C686.166,458.18,686.166,456.801,685.935,455.879L685.935,455.879z"/>
		<path style="fill-rule:evenodd;clip-rule:evenodd;fill:#2A445D;" d="M632.051,739.83c47.435,0,85.898-38.693,85.898-86.129
			c0-47.443-38.463-85.898-85.898-85.898c-47.676,0-86.131,38.455-86.131,85.898C545.92,701.137,584.375,739.83,632.051,739.83
			L632.051,739.83z"/>
		<path style="fill-rule:evenodd;clip-rule:evenodd;fill:#FF6D3A;" d="M590.365,635.041c0.92,0,1.611-0.461,2.531-0.689
			c3.459-0.691,6.91-0.461,10.369,0.689c2.07,0.461,2.07,0.461,2.301-1.611c0.691-5.76,2.07-11.281,4.371-16.811
			c2.31-5.521,5.531-10.592,10.141-14.742c0.459-0.459,0.92-0.69,1.15-1.379c-0.461-0.461-0.92-0.23-1.381-0.23
			c-14.74,3.229-26.951,16.352-29.252,31.092c0,0.23-0.231,0.691-0.231,0.92C590.365,633.201,590.365,634.121,590.365,635.041
			L590.365,635.041z"/>
		<path style="fill-rule:evenodd;clip-rule:evenodd;fill:#20D9DE;" d="M633.43,590.365c1.611,1.611,0,5.531,0.922,7.602
			c0.459,1.15,2.309,0.69,3.459,1.15c3.682,1.84,6.442,4.84,8.75,8.06c5.063,6.91,7.371,14.971,8.752,23.492
			c0.231,1.15,0.459,2.301,0.69,3.451c0,0.92,0,1.381-1.15,1.15c-6.221-2.301-12.67-3.451-19.121-4.143
			c-5.291-0.459-10.59,0.461-15.883,1.381c-2.998,0.691-6.221,1.381-9.211,2.531c-1.158,0.461-1.619,0-1.389-1.15
			c0.231-2.531,0.69-5.063,1.389-7.602c1.381-7.369,3.912-14.272,8.75-20.262c2.301-2.992,4.832-5.76,8.514-7.141
			c3.229-1.15,3-0.92,3.229-4.371c0-1.389-0.689-3,0.691-4.15C632.279,590.365,632.971,590.365,633.43,590.365L633.43,590.365z"/>
		<path style="fill-rule:evenodd;clip-rule:evenodd;fill:#E1EFFA;" d="M652.773,655.313c-2.531,0.231-4.832,2.531-4.602,5.291
			c0,2.539,2.531,4.609,4.832,4.609c2.768-0.23,4.84-2.301,4.609-5.299C657.613,657.383,655.313,655.313,652.773,655.313
			L652.773,655.313z"/>
		<path style="fill-rule:evenodd;clip-rule:evenodd;fill:#E1EFFA;" d="M610.637,661.523c2.07,0,3.912,2.08,3.912,4.381
			c-0.23,2.07-2.072,3.91-4.15,3.91c-2.301-0.231-4.141-2.07-3.912-4.371C606.486,663.143,608.328,661.293,610.637,661.523
			L610.637,661.523z"/>
		<path style="fill-rule:evenodd;clip-rule:evenodd;fill:#E1EFFA;" d="M638.5,643.563c-0.231,2.998-2.77,5.529-5.76,5.529
			c-3.221,0-5.76-2.531-5.529-5.76c0-3.221,2.539-5.521,5.76-5.521C635.961,637.81,638.5,640.57,638.5,643.563L638.5,643.563z"/>
		<path style="fill-rule:evenodd;clip-rule:evenodd;fill:#E1EFFA;" d="M625.369,660.144c-0.459,0.69-0.92,1.379-1.381,2.07
			c-1.84,4.148-5.068,7.369-8.061,10.6c-0.92,0.92-1.379,1.84-1.379,2.99c0,5.529,0,11.053,0,16.582c0,1.15,0.229,2.301-1.381,2.301
			c-1.611,0-2.07-0.92-1.842-2.301c0-2.762,0-5.529,0-8.061c0-0.691,0.461-2.07-0.928-2.07c-1.15,0-0.689,1.15-0.689,1.84
			c0,2.762,0,5.299,0,7.83c0,1.381,0,2.762-1.842,2.762c-1.609,0-1.381-1.381-1.381-2.531c0-5.07,0-10.131,0-14.971
			c0-0.92,0.231-1.842-1.15-3.221c0,2.531,0,4.141,0,5.99c0,0.92,0.231,2.07-1.379,2.07c-1.381,0-1.15-1.15-1.15-2.07
			c0-1.85,0-3.92,0-5.76c0-2.072,0.92-3.231,3.221-3.231c1.84,0,3.682,0,5.299,0c3.223,0,4.373-1.15,5.982-3.91
			c2.769-5.301,5.76-10.592,9.441-15.201c0.92-1.381,2.309-2.531,4.15-0.691c1.15,0.92,2.76,0.92,3.68-0.231
			c1.611-1.379,2.539-0.689,3.689,0.461c1.611,1.381,2.762,3.229,3.682,5.07c1.842,2.76,3.459,5.521,5.301,8.52
			c0,0.23,0.228,0.23,0.459,0.461c0.92,0.92,2.301,1.15,4.143,1.15c2.078,0,4.148,0,6.219,0c2.762,0,3.912,1.381,3.912,3.912
			c0,2.309,0,4.609,0,6.91c0,0.92,0.238,2.309-1.381,2.309c-1.84,0-1.611-1.389-1.611-2.539c0-2.07,0-4.142,0-6.91
			c-1.609,1.619-1.148,2.768-1.148,3.689c0,5.76,0,11.742,0,17.731c0,1.381,0.228,2.992-1.842,2.992c-2.301,0-2.07-1.611-2.07-3.221
			c0-2.992,0-6.221,0-9.211c0-0.922,0.231-2.301-0.928-2.301c-1.611,0-0.922,1.609-0.922,2.301c-0.228,3.221,0,6.449,0,9.67
			c0,1.611-0.459,2.992-2.301,2.762c-1.84,0-1.84-1.381-1.84-2.762c0-6.449,0-13.129,0.23-19.572c0-3.689-1.842-2.078-3.92-5.529
			c-1.381-2.07-2.99-4.609-4.602-6.451c0.92,3.459,2.07,7.141,3.221,10.83c0.922,3.221,0.461,3.912-2.99,3.682
			c-1.611,0-2.07,0.689-2.07,2.301c0.229,4.609,0,9.211,0,13.82c0,1.842,0,3.682-2.08,3.682c-2.07,0-2.07-1.84-2.07-3.451
			c0-4.609,0.23-9.211,0-13.59c0-0.922,0.691-2.531-0.92-2.531c-1.611,0-0.92,1.609-0.92,2.301c0,4.84,0,9.441,0,14.279
			c0,1.381-0.231,2.531-1.611,2.992c-2.07,0.231-2.539-1.15-2.539-2.762c0-4.84-0.228-9.67,0-14.51c0-1.842-0.459-2.531-2.529-2.531
			c-2.762,0.23-3.453-0.69-2.531-3.221c0.92-3.69,2.07-7.371,3.221-11.061C625.6,660.373,625.6,660.373,625.369,660.144
			L625.369,660.144z"/>
		<path style="fill-rule:evenodd;clip-rule:evenodd;fill:#FF6D3A;" d="M673.504,635.041c-0.92,0-1.84-0.461-2.531-0.689
			c-3.459-0.691-6.91-0.461-10.369,0.689c-2.07,0.461-2.07,0.461-2.301-1.611c-0.689-5.76-2.301-11.281-4.371-16.811
			c-2.309-5.521-5.529-10.592-10.139-14.742c-0.461-0.459-1.152-0.69-1.152-1.379c0.461-0.461,0.922-0.23,1.381-0.23
			c14.512,3.229,26.951,16.352,29.252,31.092c0,0.23,0.231,0.691,0.231,0.92C673.504,633.201,673.504,634.121,673.504,635.041
			L673.504,635.041z"/>
		<path style="fill-rule:evenodd;clip-rule:evenodd;fill:#20D9DE;" d="M156.033,739.83c47.44,0,86.13-38.693,86.13-86.129
			c0-47.443-38.689-85.898-86.13-85.898c-47.44,0-85.898,38.455-85.898,85.898C70.135,701.137,108.594,739.83,156.033,739.83
			L156.033,739.83z"/>
		<path style="fill-rule:evenodd;clip-rule:evenodd;fill:#FF6D3A;" d="M182.98,671.664l-2.765,5.752l4.836,4.148
			c0.229,0.23,0.229,0.691,0,0.92c-0.23,0.23-0.46,0.23-0.691,0.23l0,0l-6.22-0.689l-2.531,5.752c-0.23,0.231-0.69,0.469-0.92,0.231
			c-0.23,0-0.461-0.231-0.461-0.461l0,0l-1.154-6.213l-6.216-0.69c-0.46,0-0.691-0.23-0.691-0.689c0-0.23,0.23-0.469,0.46-0.469
			l5.526-2.99l-0.46-2.301l1.15-0.691l0.689,3.221c0,0.23-0.23,0.461-0.46,0.691l-4.145,2.309l4.836,0.459
			c0.23,0,0.464,0.231,0.464,0.461l0.921,4.832l2.07-4.371c0-0.231,0.23-0.461,0.69-0.461l4.605,0.69l-3.451-3.228
			c-0.23-0.231-0.23-0.459-0.23-0.92l2.071-4.142l-4.146,2.301l0,0c-0.23,0-0.46,0-0.69-0.229l-2.305-2.072l1.154-0.69l1.61,1.611
			l5.526-3.23c0.23,0,0.694,0,0.924,0.23C182.98,671.203,182.98,671.434,182.98,671.664L182.98,671.664z"/>
		<path style="fill-rule:evenodd;clip-rule:evenodd;fill:#2A445D;" d="M165.015,675.115c-4.836,2.76-9.671,5.529-14.507,8.291
			c-3.915,2.301-7.37,2.301-11.056-0.461c-1.15-0.92-2.531-1.611-3.682-2.762c-2.995-3.229-6.22-3.459-9.905-0.459
			c-1.61,1.15-3.685,3.221-5.525-0.238c-1.611-2.531-0.921-4.143,1.61-5.291c2.305-1.152,1.154-2.762,0.229-4.15
			c-3.451-6.213-6.906-12.432-10.821-18.652c-1.61-2.762-1.381-4.602,1.61-5.982c1.614-0.697,3.226-1.617,4.376-2.539
			c3.915-2.99,6.91-3.221,8.751,1.842c0.69,2.078,2.074,1.848,3.685,0.928c9.212-5.529,18.657-10.83,28.098-16.121
			c2.301-1.381,1.841-3,0.461-4.609c-2.075-2.992-1.845-4.832,1.61-6.682c11.746-6.441,8.751-6.902,15.201,3.92
			c2.53,4.371,5.065,8.752,7.601,13.123c1.15,1.848,2.07,2.768,4.142,1.389c2.534-1.85,3.915-0.469,5.069,1.609
			c1.381,2.301,0.23,3.682-1.614,4.143c-5.986,2.07-6.446,6.219-5.526,11.519c1.381,8.283,0.69,9.211-6.68,13.582
			C173.766,670.045,169.391,672.584,165.015,675.115L165.015,675.115z M155.344,657.613c-7.371,4.141-14.507,8.291-21.647,12.432
			c-3.226,1.619-3.916,3.228-0.46,5.299c2.534,1.842,5.066,3.682,7.601,5.762c2.99,2.07,5.756,2.07,8.751,0.228
			c7.37-4.379,14.736-8.519,22.107-12.9c13.816-8.061,11.976-4.602,10.361-20.723c0-0.23-0.23-0.689-0.23-0.92
			c0-3.459-1.841-3.689-4.375-2.078C170.084,649.092,162.714,653.232,155.344,657.613L155.344,657.613z M145.442,640.111
			L145.442,640.111c-2.766,1.609-5.526,3.221-8.291,4.83c-1.381,0.93-2.535,1.85-1.381,3.69c1.15,1.381,2.301,1.15,3.682,0.461
			c5.529-3.221,11.056-6.451,16.581-9.672c1.155-0.689,1.845-1.84,1.155-3.229c-0.925-1.611-2.306-1.381-3.456-0.689
			C150.968,636.889,148.203,638.5,145.442,640.111L145.442,640.111z M169.62,633.201c-0.69,0.229-1.15,0.689-1.61,0.92
			c-2.07,1.381-4.836,1.84-2.765,5.529c2.305,3.912,4.145,1.842,6.22,0.689c1.61-0.92,3.226-1.84,4.605-2.76
			c1.15-0.691,2.301-1.389,1.61-2.77c-0.689-1.609-1.15-3.682-2.761-3.91C172.846,630.67,171.234,632.51,169.62,633.201
			L169.62,633.201z M127.02,657.844L127.02,657.844c-0.233,0-0.464,0.229-0.694,0.459c-2.07,1.381-5.296,1.842-2.991,5.76
			c2.302,3.912,4.146,1.381,6.217,0.231c1.614-0.69,2.995-1.611,4.375-2.309c2.535-1.381,2.075-2.992,0.921-4.832
			c-1.15-1.84-2.071-2.762-4.145-1.381C129.551,656.463,128.17,657.152,127.02,657.844L127.02,657.844z"/>
		<rect x="117.345" y="689.856" style="fill-rule:evenodd;clip-rule:evenodd;fill:#FF6D3A;" width="84.519" height="3.912"/>
		<path style="fill-rule:evenodd;clip-rule:evenodd;fill:#FFD55C;" d="M393.929,739.83c-47.44,0-85.899-38.693-85.899-86.129
			c0-47.443,38.459-85.898,85.899-85.898c47.671,0,86.126,38.455,86.126,85.898C480.055,701.137,441.6,739.83,393.929,739.83
			L393.929,739.83z"/>
		<path style="fill-rule:evenodd;clip-rule:evenodd;fill:#2A445D;" d="M350.864,666.133c1.15-0.229,1.841-1.379,1.61-2.529
			c0,0-0.46-1.85,1.15-3.459l2.765-2.531l2.301,2.301l-1.61,1.84c-1.61,1.389-1.61,4.15,0,5.76c0,0,0,0,0.23,0.23
			c6.45,6.221,14.047,8.522,22.337,6.221c5.066-1.611,9.906-4.84,13.357-8.06l3.455,3.451l-11.282,11.289
			c-0.694,0.69-0.694,2.07,0,2.762c0.92,0.92,2.301,0.92,2.991,0l25.107-25.104c0.92-0.689,0.92-2.07,0-2.99
			c-0.697-0.691-2.078-0.691-2.77,0l-11.281,11.281l-3.226-3.451c2.995-3.228,4.836-5.76,4.836-5.76
			c0.921-1.381,1.15-2.992,0.46-4.379l-3.915-7.133l14.737-19.352l13.131-1.15c0.92-0.228,1.609,2.072,2.529,3
			c0,0.231,0.461,0.69,0.922,1.15c1.15,1.15,2.768,1.84,4.609,1.84c1.609,0,3.221-0.689,4.602-1.84c1.389-1.381,1.848-3,1.848-4.609
			c0-1.842-0.689-3.451-1.848-4.832c-1.381-1.158-2.992-1.85-4.602-1.85c-1.611,0-3.459,0.691-4.84,1.85
			c-0.23,0.459-0.461,0.689-0.691,1.15l-6.68-6.451c-1.609-1.84-4.141-1.84-5.752-0.228l-22.341,22.34h-9.441
			c-1.15,0-2.071,0.461-2.991,1.15l-5.069,5.293l-2.531-2.531l5.986-5.99c0.92-0.689,0.689-2.07,0-2.99
			c-0.921-0.691-2.071-0.691-2.995,0l-25.329,25.332c-2.534,2.531-2.534,5.99-2.305,7.602
			C348.789,665.674,349.71,666.363,350.864,666.133L350.864,666.133z M417.646,618.92l2.301-2.301l1.619,1.84l-2.309,2.078
			l2.539,2.531l-1.85,1.611l-2.301-2.301l-2.301,2.301l-1.84-1.842l2.301-2.07l-2.301-2.309l1.84-1.84L417.646,618.92z
			 M376.192,659.453l8.522,8.521c-5.296,4.84-12.202,4.84-17.502,0.23L376.192,659.453z M378.037,657.383l8.521-8.521
			c7.14,4.602,7.601,11.053,0,17.271L378.037,657.383z M433.309,628.828c0.92,0,1.84-0.459,2.76-1.158
			c0.691-0.92,1.15-1.84,1.15-2.76c0-1.15-0.459-2.072-1.15-2.992c-0.689-0.69-1.84-1.15-2.76-1.15c-1.15,0-2.07,0.461-2.762,1.15
			c-0.928,0.92-1.158,1.842-1.389,2.992c0.23,0.92,0.461,1.84,1.389,2.76C431.238,628.369,432.158,628.828,433.309,628.828
			L433.309,628.828z M369.746,644.021l2.535,2.539l-10.365,10.131l-2.301-2.301L369.746,644.021z"/>
		<path style="fill-rule:evenodd;clip-rule:evenodd;fill:#FF6D3A;" d="M415.115,669.125l-0.689,6.219l5.522,2.531
			c0.461,0.231,0.461,0.461,0.461,0.922c-0.23,0.229-0.461,0.229-0.461,0.229l0,0l-6.211,1.158l-0.691,6.213
			c0,0.231-0.23,0.689-0.697,0.461c-0.23,0-0.23,0-0.461-0.23l0,0l-2.99-5.293l-5.99,1.15c-0.461,0-0.691-0.228-0.691-0.459
			c-0.229-0.23,0-0.461,0-0.691l4.381-4.379l-1.15-2.07l0.92-0.92l1.381,2.76c0.229,0.23,0.229,0.461,0,0.691l-3.223,3.459
			l4.602-0.92c0.23,0,0.461,0,0.691,0.229l2.301,4.143l0.461-4.602c0-0.238,0.236-0.469,0.467-0.699l4.602-0.92l-4.141-1.84
			c-0.23,0-0.461-0.461-0.461-0.691l0.691-4.609l-3.23,3.459l0,0c-0.23,0.23-0.459,0.23-0.689,0.23l-2.762-1.381l0.92-0.92
			l1.842,0.92l4.148-4.609c0.23-0.231,0.691-0.231,0.922,0C415.115,668.894,415.115,669.125,415.115,669.125L415.115,669.125z"/>
		<rect x="351.324" y="690.086" style="fill-rule:evenodd;clip-rule:evenodd;fill:#FF6D3A;" width="82.674" height="3.912"/>
		<path style="fill-rule:evenodd;clip-rule:evenodd;fill:#2A445D;" d="M156.033,347.179c47.44,0,86.13,38.459,86.13,85.899
			c0,47.666-38.689,86.129-86.13,86.129c-47.44,0-85.898-38.463-85.898-86.129C70.135,385.638,108.594,347.179,156.033,347.179
			L156.033,347.179z"/>
		<path style="fill-rule:evenodd;clip-rule:evenodd;fill:#FF6D3A;" d="M125.405,428.238c-2.995-4.371-4.836-9.441-4.836-14.732
			c0-8.752,4.836-16.816,12.667-22.572c7.601-5.525,18.191-8.98,29.708-8.98c11.746,0,22.107,3.455,29.938,8.98
			c7.831,5.756,12.667,13.82,12.667,22.572c0,8.98-4.836,16.811-12.667,22.563c-7.83,5.531-18.191,9.213-29.938,9.213
			c-2.075,0-3.916-0.23-5.986-0.461c-1.614-0.23-3.226-0.461-4.84-0.92l-21.188,14.74c-0.46,0.23-1.38,0.461-2.07,0
			c-0.92-0.461-1.15-1.611-0.69-2.531l9.211-17.51C132.546,435.84,128.4,432.389,125.405,428.238L125.405,428.238L125.405,428.238z
			 M124.255,413.506c0,4.602,1.61,8.75,4.375,12.662l0,0c2.766,3.912,6.911,7.371,12.207,10.131c0.92,0.461,1.15,1.611,0.689,2.539
			l0,0l0,0l-6.45,12.203l15.432-10.592c0.46-0.461,0.92-0.461,1.61-0.461l0,0c1.614,0.461,3.455,0.689,5.3,0.92
			c1.841,0.23,3.682,0.461,5.526,0.461c10.821,0,20.497-3.229,27.633-8.291c6.91-5.07,11.056-11.98,11.056-19.572
			c0-7.602-4.146-14.512-11.056-19.347c-7.136-5.3-16.812-8.522-27.633-8.522c-10.826,0-20.497,3.222-27.403,8.522
			C128.63,398.994,124.255,405.904,124.255,413.506L124.255,413.506z"/>
		<path style="fill-rule:evenodd;clip-rule:evenodd;fill:#FFD55C;" d="M106.293,466.471l9.901-0.229c0.46,0,0.92,0.459,1.38,0.92
			l9.676,13.123c0.229,0.459,0.229,0.689-0.23,0.689l-9.905,0.23c-0.46,0-0.92-0.23-1.38-0.691l-9.672-13.121
			C105.832,466.932,105.832,466.471,106.293,466.471L106.293,466.471z"/>
		<path style="fill-rule:evenodd;clip-rule:evenodd;fill:#E1EFFA;" d="M196.798,462.322c-0.461-1.381-2.535-2.07-5.066-1.84
			c-0.694,0-1.384,0-1.845,0.229c-2.994,0.922-18.422,6.221-18.422,6.451h-0.46l0.23,0.23c1.841,1.379,2.531,2.99,2.071,4.141
			c-0.46,2.078-2.991,2.998-7.137,3.459c-3.455,0.23-8.061,0-13.591-1.15c0.694,0,1.385,0,1.845,0.23c3.916,0,7.601,0,10.592-0.23
			c4.376-0.459,6.45-1.389,6.681-2.998c0.23-1.15-0.461-2.072-2.075-2.762c-1.61-0.92-5.065-1.381-8.287-1.84
			c-2.305-0.461-4.609-0.691-5.989-1.15c-5.296-1.389-10.822-2.77-17.272-2.309c-0.92,0.228-1.841,0.228-2.765,0.459
			c-5.065,0.92-9.671,2.078-14.737,3.459h-0.46l7.37,10.592c1.15-0.23,2.531-0.459,3.916-0.459c1.841-0.231,3.451-0.231,5.065,0
			c1.841,0.228,7.137,1.379,11.977,2.301c5.065,1.15,9.671,2.07,11.512,2.301c1.15,0.229,2.074,0.229,3.225,0
			c2.535,0,5.066-1.381,7.371-2.762c0.92-0.461,1.61-0.689,2.301-1.15l21.877-11.742
			C197.027,464.162,197.027,463.012,196.798,462.322L196.798,462.322z"/>
		<path style="fill-rule:evenodd;clip-rule:evenodd;fill:#FFD55C;" d="M181.826,413.506c0,7.592-5.985,14.043-13.586,14.732
			c0-0.23,0-0.69-0.23-1.15c0,0-0.23-0.92-0.69-2.07c6.216,0,11.286-5.301,11.286-11.512c0-6.451-5.07-11.52-11.286-11.75
			c0.46-1.15,0.69-1.841,0.69-2.071c0.23-0.229,0.23-0.69,0.23-1.15C175.841,399.225,181.826,405.674,181.826,413.506
			L181.826,413.506z"/>
		<path style="fill-rule:evenodd;clip-rule:evenodd;fill:#FFD55C;" d="M149.357,404.523c-0.23,2.992-0.46,5.752-0.46,8.752l0,0
			c0,0,0,0,0,0.23c0,0,0,0,0,0.23l0,0c0,2.76,0.229,5.752,0.46,8.52c0.46,7.594,6.446,12.662,12.206,11.283c0.23,0,0.46,0,0.92,0
			c1.381-0.691,2.531-1.842,3.686-2.531c1.841-1.158-1.845-9.91-4.145-8.752c-0.69,0.461-2.995,2.07-3.915,2.07
			c-0.92,0.23-1.385-0.92-1.614-1.84c-0.23-2.539,0-5.99,0-8.75l0,0c0-0.23,0-0.23,0-0.23c0-0.23,0-0.23,0-0.23l0,0
			c0-2.77-0.23-6.221,0-8.752c0.23-1.158,0.694-2.078,1.614-2.078c0.92,0.23,3.225,1.85,3.915,2.309
			c2.301,1.15,5.986-7.834,4.145-8.755c-1.154-0.92-2.305-2.07-3.686-2.534c-0.46-0.23-0.689-0.23-0.92-0.23
			C155.804,392.084,149.817,396.92,149.357,404.523L149.357,404.523z"/>
		<path style="fill-rule:evenodd;clip-rule:evenodd;fill:#E1EFFA;" d="M159.949,416.727h5.296l0.233-1.381h-3.225l0.229-0.23
			c0.23-0.229,0.461-0.459,0.921-0.689l0.69-0.461c0.689-0.229,1.15-0.689,1.384-0.92c0.461-0.467,0.69-0.928,0.69-1.389
			c0.23-0.92,0.23-1.381-0.229-1.84c-0.461-0.461-0.925-0.691-1.845-0.691c-0.921,0-1.611,0.461-2.301,1.15
			c-0.23,0.461-0.461,0.922-0.694,1.611h1.384c0.23-0.461,0.23-0.92,0.461-0.92c0.229-0.461,0.689-0.691,0.92-0.691
			c0.46,0,0.69,0.23,0.69,0.461c0.229,0.23,0.229,0.461,0.229,0.69c0,0.461-0.229,0.922-0.689,1.152
			c-0.23,0.236-0.69,0.467-1.611,1.158c-0.92,0.459-1.384,0.92-1.844,1.609C160.409,415.807,160.179,416.266,159.949,416.727
			L159.949,416.727z M171.695,413.965h-0.69l0.92-4.84h-1.61l-3.686,4.611l-0.46,1.379h2.991l-0.23,1.611h1.385l0.46-1.611h0.69
			L171.695,413.965z M167.55,413.965l2.534-3.229l-0.693,3.229H167.55z"/>
		<path style="fill-rule:evenodd;clip-rule:evenodd;fill:#FFD55C;" d="M632.051,126.556c47.435,0,85.898,38.459,85.898,85.899
			c0,47.67-38.463,86.129-85.898,86.129c-47.676,0-86.131-38.459-86.131-86.129C545.92,165.015,584.375,126.556,632.051,126.556
			L632.051,126.556z"/>
		<path style="fill-rule:evenodd;clip-rule:evenodd;fill:#FF6D3A;" d="M659.684,194.493L659.684,194.493v-2.531h6.221
			c-3.223-2.995-6.682-5.99-10.133-8.981v-17.041c0-1.155-0.92-2.075-1.84-2.075h-7.83c-0.922,0-1.85,0.92-1.85,2.075v6.445
			c-2.99-2.765-5.983-5.525-8.981-8.29c-1.15-0.921-1.842-0.921-2.992,0c-9.67,8.751-19.572,17.502-29.473,26.022
			c-0.691,0.69-1.389,1.385-2.08,1.845h4.84v2.301c0.23,0.23,0.23,0.69,0.23,1.15c0,8.985,0,17.966-0.23,26.947
			c0,1.15,0.461,1.61,1.842,1.61c5.068-0.23,10.361-0.23,15.43,0c1.381,0,1.611-0.46,1.611-1.61c0-4.605,0-8.981,0-13.587
			c0-2.535,1.381-3.915,3.92-3.915c2.531-0.23,4.832,0,7.133,0c4.379,0,5.529,1.15,5.529,5.525c0,3.916,0,8.061,0,11.977
			c0,1.15,0.23,1.38,1.381,1.38c5.068,0,10.361,0,15.432,0c1.148,0.23,1.609-0.23,1.84-1.15v-5.989
			C659.684,209.233,659.684,201.863,659.684,194.493L659.684,194.493z"/>
		<path style="fill-rule:evenodd;clip-rule:evenodd;fill:#2A445D;" d="M688.935,232.492c-0.689-1.841-3.459-2.766-6.68-2.535
			c-0.922,0.233-1.842,0.233-2.531,0.694c-3.92,1.15-23.723,7.826-23.953,8.057h-0.459l0.231,0.464
			c2.301,1.841,3.449,3.682,2.76,5.526c-0.459,2.301-3.912,3.915-9.211,4.146c-4.609,0.46-10.592,0-17.502-1.15
			c0.69,0,1.611,0,2.301,0c5.07,0,9.902,0,13.59-0.23c5.752-0.464,8.291-1.845,8.752-3.915c0.231-1.385-0.689-2.766-2.531-3.456
			c-2.309-1.15-6.68-1.844-11.061-2.534c-2.99-0.46-5.752-0.921-7.6-1.381c-6.902-1.841-14.043-3.685-22.334-2.995
			c-1.15,0.23-2.539,0.23-3.689,0.461c-6.441,1.154-12.662,2.534-19.111,4.605h-0.692l9.442,13.82
			c1.842-0.46,3.459-0.694,5.301-0.924c2.301-0.23,4.371,0,6.441,0.229c2.539,0.464,9.219,1.845,15.432,2.995
			c6.68,1.381,12.9,2.765,15.201,2.995c1.609,0.23,2.762,0.23,4.148,0c3.223-0.23,6.443-1.845,9.672-3.455
			c0.92-0.69,1.84-1.15,2.762-1.61l28.322-15.432C689.166,235.026,689.166,233.412,688.935,232.492L688.935,232.492z"/>
		<path style="fill-rule:evenodd;clip-rule:evenodd;fill:#FF6D3A;" d="M574.475,238.018h8.291c0.459,0,1.15,0.46,1.381,0.924
			l12.439,17.042c0.461,0.69,0.461,1.15,0,1.15h-8.291c-0.461,0-0.92-0.46-1.381-1.15l-12.439-17.042
			C574.244,238.477,574.244,238.018,574.475,238.018L574.475,238.018z"/>
		<path style="fill-rule:evenodd;clip-rule:evenodd;fill:#E1EFFA;" d="M393.929,126.556c-47.44,0-85.899,38.459-85.899,85.899
			c0,47.67,38.459,86.129,85.899,86.129c47.671,0,86.126-38.459,86.126-86.129C480.055,165.015,441.6,126.556,393.929,126.556
			L393.929,126.556z"/>
		<path style="fill-rule:evenodd;clip-rule:evenodd;fill:#FF6D3A;" d="M448.74,200.022c0-12.437-5.76-21.417-15.201-25.103
			c-9.672-3.686-18.424-1.845-26.023,5.296c-3.92,3.455-7.601,7.37-11.286,11.286c-1.381,1.38-2.531,1.38-4.145,0
			c-3.686-3.226-7.137-6.91-10.592-10.366c-10.135-10.361-25.103-10.591-35.468-0.689c-9.441,9.44-8.981,24.642,0.925,34.543
			l6.906,7.141h21.877l4.146-8.751c0.46-0.694,1.154-1.154,1.845-1.154c0.92,0.23,1.61,0.69,1.61,1.614l2.535,13.127l3.225-24.643
			c0-0.92,0.921-1.38,1.841-1.38l0,0c0.921,0,1.61,0.689,1.841,1.38l3.455,21.417l2.305-5.525c0.23-0.69,0.921-1.154,1.841-1.154
			c0.69,0.234,1.381,0.694,1.61,1.385l3.229,9.671l2.76-5.065c0.23-0.69,0.922-0.921,1.611-0.921h24.643
			c2.07-2.305,4.141-4.375,6.221-6.45C445.74,210.614,448.51,204.858,448.74,200.022L448.74,200.022z M357.54,225.815
			c11.286,11.282,22.568,22.567,33.854,33.85c1.841,1.845,3.226,2.535,5.066,0.23c3.685-3.682,7.597-7.367,11.286-11.282
			c7.6-7.601,15.201-15.201,22.801-22.798h-19.811l-4.141,7.597c-0.461,0.69-1.15,1.154-1.842,1.154
			c-0.697-0.23-1.389-0.694-1.617-1.385l-2.992-8.98l-2.995,6.68c-0.229,0.69-0.92,1.15-1.84,0.921c-0.69,0-1.381-0.691-1.611-1.381
			l-2.534-15.892l-2.995,24.179c-0.23,0.924-0.921,1.614-1.841,1.614l0,0c-0.92,0-1.845-0.69-1.845-1.614l-3.681-18.652
			l-2.306,4.605c-0.229,0.69-0.92,1.154-1.61,1.154H357.54z"/>
		<path style="fill-rule:evenodd;clip-rule:evenodd;fill:#FFD55C;" d="M353.855,222.13l3.685,3.686h19.347
			c0.69,0,1.381-0.464,1.61-1.154l2.306-4.605l3.681,18.652c0,0.924,0.925,1.614,1.845,1.614l0,0c0.92,0,1.61-0.69,1.61-1.614
			l3.226-24.179l2.534,15.892c0.23,0.69,0.921,1.381,1.611,1.381c0.92,0.229,1.61-0.23,1.84-0.921l2.766-6.68l3.222,8.98
			c0.229,0.691,0.92,1.154,1.617,1.385c0.691,0,1.381-0.464,1.842-1.154l4.141-7.597h19.58l3.912-3.686h-24.643
			c-0.689,0-1.381,0.23-1.611,0.921l-2.76,5.065l-3.229-9.671c-0.229-0.69-0.92-1.15-1.61-1.385c-0.92,0-1.61,0.464-1.841,1.154
			l-2.305,5.525l-3.455-21.417c-0.23-0.69-0.92-1.38-1.841-1.38l0,0c-0.92,0-1.841,0.46-1.841,1.38l-3.225,24.643l-2.535-13.127
			c0-0.924-0.69-1.384-1.61-1.614c-0.69,0-1.385,0.46-1.845,1.154l-4.146,8.751H353.855z"/>
		<path style="fill-rule:evenodd;clip-rule:evenodd;fill:#20D9DE;" d="M156.033,298.584c47.44,0,86.13-38.459,86.13-86.129
			c0-47.44-38.689-85.899-86.13-85.899c-47.44,0-85.898,38.459-85.898,85.899C70.135,260.125,108.594,298.584,156.033,298.584
			L156.033,298.584z"/>
		<path style="fill-rule:evenodd;clip-rule:evenodd;fill:#FF6D3A;" d="M201.863,210.154c-1.15,0.23-2.074-0.23-2.995-0.46
			c-3.686-0.921-7.597-0.69-11.282,0.46c-2.305,0.69-2.305,0.69-2.534-1.61c-0.691-6.45-2.535-12.667-4.836-18.427
			c-2.535-6.216-6.22-11.746-11.056-16.352c-0.46-0.46-1.15-0.92-1.381-1.61c0.461-0.46,1.15-0.23,1.611,0
			c16.121,3.455,29.478,17.962,32.013,34.083c0.229,0.23,0.229,0.69,0.46,0.921C201.863,208.31,201.863,209.233,201.863,210.154
			L201.863,210.154z"/>
		<path style="fill-rule:evenodd;clip-rule:evenodd;fill:#FF6D3A;" d="M110.208,210.154c0.92,0.23,1.841-0.23,2.761-0.46
			c3.916-0.921,7.601-0.69,11.517,0.46c2.301,0.69,2.301,0.69,2.534-1.61c0.69-6.45,2.301-12.667,4.836-18.427
			c2.531-6.216,5.986-11.746,11.052-16.352c0.46-0.46,1.15-0.92,1.385-1.61c-0.694-0.46-1.154-0.23-1.615,0
			c-16.121,3.455-29.708,17.962-32.238,34.083c0,0.23-0.23,0.69-0.23,0.921C110.208,208.31,110.208,209.233,110.208,210.154
			L110.208,210.154z"/>
		<path style="fill-rule:evenodd;clip-rule:evenodd;fill:#FF6D3A;" d="M133.696,249.764l5.525-0.92
			c0.23,3.685,0.925,6.216,2.075,7.6c1.38,1.381,2.995,2.071,5.065,2.071c1.61,0,2.995-0.46,4.145-1.15
			c1.15-0.69,2.07-1.614,2.535-2.995c0.23-1.15,0.46-3.225,0.46-5.986V215.45h6.446v32.473c0,4.146-0.46,7.137-1.381,9.441
			c-1.15,2.07-2.535,3.915-4.605,5.065c-2.074,1.15-4.605,1.61-7.37,1.61c-4.376,0-7.601-1.15-9.672-3.681
			C134.616,258.055,133.466,254.369,133.696,249.764L133.696,249.764z"/>
		<path style="fill-rule:evenodd;clip-rule:evenodd;fill:#FFD55C;" d="M157.648,160.869c1.841,1.845,0,6.221,1.15,8.521
			c0.46,1.154,2.534,0.924,3.685,1.384c3.916,2.071,6.907,5.296,9.672,8.751c5.525,7.831,8.061,16.582,9.671,25.793
			c0.23,1.381,0.46,2.761,0.69,3.915c0,0.921,0,1.611-1.381,1.15c-6.676-2.534-13.816-3.685-20.957-4.375
			c-5.756-0.46-11.741,0.46-17.271,1.61c-3.455,0.46-6.906,1.385-10.361,2.535c-1.381,0.69-1.615,0-1.615-1.15
			c0.234-2.995,0.925-5.76,1.615-8.521c1.61-8.061,4.375-15.661,9.441-22.111c2.765-3.221,5.525-6.446,9.671-7.826
			c3.455-1.154,3.225-1.154,3.455-4.836c0-1.614-0.69-3.455,0.69-4.84C156.494,160.869,157.189,160.869,157.648,160.869
			L157.648,160.869z"/>
		<rect x="10.028" y="10.028" style="fill-rule:evenodd;clip-rule:evenodd;fill:#20D9DE;" width="540.034" height="56.19"/>
		<rect x="550.063" y="10.028" style="fill-rule:evenodd;clip-rule:evenodd;fill:#2A445D;" width="239.965" height="56.19"/>
		<path style="fill:#263747;" d="M81.19,48.257c1.61,0,2.995-0.46,4.146-1.841c0.92-1.15,1.61-2.995,1.61-5.065v-1.614
			c-0.921,0.92-1.61,1.614-2.531,2.074c-1.154,0.46-2.074,0.69-3.225,0.69c-2.995,0-5.296-1.15-6.911-2.995
			c-1.61-1.841-2.53-4.375-2.53-7.601c0-3.221,1.15-5.756,2.991-7.827c2.074-2.074,4.606-3.225,7.601-3.225
			c3.225,0,5.76,1.15,7.83,3.455c1.841,2.071,2.995,5.296,2.995,9.211v7.367c0,3.915-1.154,6.91-3.455,8.984
			c-2.074,2.301-5.065,3.222-8.521,3.222c-0.921,0-2.075,0-3.226-0.23c-1.15-0.229-2.301-0.69-3.225-1.15l0.694-4.375
			c0.92,0.229,1.84,0.46,2.761,0.69C79.115,48.257,80.04,48.257,81.19,48.257L81.19,48.257z M82.341,37.896
			c0.92,0,1.845-0.231,2.534-0.69c0.921-0.46,1.381-0.924,2.071-1.614V32.83c0-2.306-0.46-4.146-1.381-5.3
			c-0.69-1.15-1.845-1.841-3.225-1.841c-1.15,0-2.301,0.69-2.995,1.841c-0.921,1.154-1.15,2.534-1.15,4.375
			c0,1.845,0.229,3.226,0.92,4.376C79.81,37.205,80.96,37.896,82.341,37.896L82.341,37.896z M115.964,52.633h-6.45V21.314h6.45
			V52.633z M147.513,52.633h-6.216L128.63,31.215H128.4v21.418h-6.221V21.314h6.221l12.666,21.418h0.23V21.314h6.216V52.633z
			 M170.314,44.571c0-1.15-0.464-2.301-1.385-2.99c-0.92-0.694-2.301-1.385-4.375-2.075c-3.915-0.92-6.677-2.301-8.521-3.686
			c-1.84-1.61-2.99-3.685-2.99-6.216c0-2.535,1.15-4.606,3.451-6.22c2.074-1.611,4.839-2.531,8.29-2.531
			c3.456,0,6.221,0.92,8.521,2.761c2.074,1.845,3.225,4.146,2.995,6.91l0,0h-5.986c0-1.38-0.464-2.53-1.614-3.455
			c-0.921-0.92-2.301-1.38-3.916-1.38c-1.84,0-2.99,0.46-3.915,1.15c-0.92,0.691-1.38,1.845-1.38,2.995c0,0.92,0.46,1.84,1.38,2.534
			c0.925,0.691,2.765,1.381,5.07,2.071c3.451,0.92,6.216,2.305,7.826,3.915c1.845,1.381,2.765,3.455,2.765,6.216
			c0,2.535-1.15,4.605-3.225,6.221c-2.071,1.61-4.836,2.301-8.291,2.301c-3.451,0-6.446-0.921-8.981-2.531
			c-2.53-1.845-3.685-4.375-3.685-7.37v-0.23h6.22c0,1.841,0.46,3.226,1.61,4.146c1.154,0.92,2.766,1.381,4.836,1.381
			c1.614,0,2.995-0.461,3.915-1.15C169.851,46.647,170.314,45.726,170.314,44.571L170.314,44.571z M206.009,21.314v20.957
			c0,3.455-1.15,6.217-3.455,8.061c-2.301,1.84-5.296,2.761-9.211,2.761c-3.686,0-6.681-0.921-8.981-2.761
			c-2.305-1.845-3.455-4.606-3.455-8.061V21.314h6.22v20.727c0,2.07,0.69,3.685,1.841,4.835c0.92,0.921,2.535,1.381,4.376,1.381
			c2.07,0,3.685-0.46,4.835-1.381c0.921-1.15,1.611-2.765,1.611-4.835V21.314H206.009z M217.755,40.196v12.437h-6.221V21.314h11.746
			c3.686,0,6.446,0.921,8.521,2.535c1.841,1.61,2.995,3.911,2.995,6.676c0,1.845-0.461,3.226-1.385,4.376
			c-0.69,1.15-2.07,2.074-3.686,2.765c1.845,0.46,3.226,1.381,3.916,2.761c0.924,1.155,1.384,2.766,1.384,4.606v2.305
			c0,0.92,0,1.84,0.23,2.765c0.229,0.92,0.69,1.61,1.15,2.07v0.461h-6.45c-0.46-0.461-0.921-1.15-0.921-2.301
			c-0.23-0.925-0.46-2.075-0.46-2.995v-2.305c0-1.381-0.23-2.762-1.15-3.451c-0.92-0.925-2.074-1.385-3.686-1.385H217.755z
			 M217.755,35.36h5.525c1.611,0,2.995-0.46,3.916-1.15c0.92-0.69,1.38-1.841,1.38-3.225c0-1.611-0.46-2.531-1.38-3.455
			c-0.921-0.921-2.075-1.381-3.916-1.381h-5.525V35.36z M257.364,45.956h-10.826l-2.301,6.677h-6.22l10.826-31.319h6.445
			l10.596,31.319h-6.22L257.364,45.956z M247.923,41.12h8.061l-3.915-12.436h-0.23L247.923,41.12z M294.209,52.633h-6.217
			l-12.666-21.418h-0.229v21.418h-6.217V21.314h6.217l12.666,21.418h0.229V21.314h6.217V52.633z M323.686,42.041L323.686,42.041
			c0,3.455-0.92,6.216-2.991,8.061c-2.305,2.07-5.069,2.991-8.98,2.991c-3.685,0-6.681-1.15-8.985-3.686
			c-2.53-2.301-3.681-5.525-3.681-9.211v-6.216c0-3.916,1.15-6.911,3.451-9.441c2.305-2.305,5.3-3.686,8.98-3.686
			c3.916,0,6.91,1.15,8.985,2.995c2.301,2.07,3.221,4.836,3.221,8.287l0,0h-5.985c0-2.071-0.69-3.682-1.615-4.605
			c-0.92-1.15-2.53-1.841-4.605-1.841c-1.841,0-3.451,0.92-4.375,2.305c-1.15,1.61-1.841,3.451-1.841,5.986v6.216
			c0,2.305,0.691,4.375,1.841,5.76c1.154,1.61,2.765,2.301,4.609,2.301c2.07,0,3.451-0.46,4.371-1.61
			c0.925-0.921,1.385-2.535,1.385-4.606H323.686z M347.409,39.046h-12.897v8.751h15.197v4.836h-21.647V21.314h21.417v4.836h-14.967
			v8.061h12.897V39.046z M371.127,52.633h-6.216V21.314h6.216V52.633z M401.065,42.041L401.065,42.041
			c0,3.455-0.921,6.216-3.222,8.061c-2.074,2.07-4.839,2.991-8.751,2.991c-3.685,0-6.68-1.15-9.215-3.686
			c-2.301-2.301-3.451-5.525-3.451-9.211v-6.216c0-3.916,1.15-6.911,3.451-9.441c2.305-2.305,5.3-3.686,8.982-3.686
			c3.915,0,6.91,1.15,8.984,2.995c2.301,2.07,3.222,4.836,3.222,8.287l0,0h-6.217c0-2.071-0.46-3.682-1.384-4.605
			c-0.921-1.15-2.531-1.841-4.605-1.841c-1.841,0-3.451,0.92-4.605,2.305c-0.921,1.61-1.611,3.451-1.611,5.986v6.216
			c0,2.305,0.69,4.375,1.841,5.76c1.154,1.61,2.765,2.301,4.609,2.301c2.071,0,3.451-0.46,4.372-1.61
			c0.924-0.921,1.384-2.535,1.384-4.606H401.065z M430.777,39.966c0,3.686-1.389,6.91-3.689,9.441
			c-2.531,2.535-5.521,3.686-9.441,3.686c-3.91,0-7.141-1.15-9.441-3.686c-2.531-2.531-3.682-5.756-3.682-9.441V34.21
			c0-3.915,1.15-6.91,3.682-9.441c2.301-2.534,5.531-3.915,9.441-3.915c3.682,0,6.91,1.381,9.441,3.915
			c2.301,2.531,3.689,5.526,3.689,9.441V39.966z M424.326,34.21c0-2.535-0.459-4.605-1.84-5.986c-1.158-1.614-2.77-2.534-4.84-2.534
			c-2.301,0-3.91,0.92-5.068,2.534c-1.152,1.381-1.842,3.451-1.842,5.986v5.756c0,2.305,0.689,4.376,1.842,5.99
			c1.158,1.61,2.768,2.301,5.068,2.301c2.07,0,3.682-0.69,5.07-2.301c1.15-1.614,1.609-3.686,1.609-5.99V34.21z M460.941,52.633
			h-6.221l-12.662-21.418h-0.23v21.418h-6.219V21.314h6.219l12.664,21.418h0.229V21.314h6.221V52.633z M483.744,44.571
			c0-1.15-0.461-2.301-1.381-2.99c-0.928-0.694-2.309-1.385-4.379-2.075c-3.682-0.92-6.682-2.301-8.522-3.686
			c-1.842-1.61-2.762-3.685-2.762-6.216c0-2.535,0.92-4.606,3.221-6.22c2.072-1.611,4.84-2.531,8.291-2.531s6.221,0.92,8.522,2.761
			c2.07,1.845,3.221,4.146,2.99,6.91l0,0h-5.98c0-1.38-0.461-2.53-1.611-3.455c-0.928-0.92-2.309-1.38-3.92-1.38
			c-1.84,0-2.99,0.46-3.91,1.15c-0.92,0.691-1.389,1.845-1.389,2.995c0,0.92,0.469,1.84,1.389,2.534
			c1.15,0.691,2.76,1.381,5.061,2.071c3.459,0.92,6.221,2.305,7.832,3.915c1.84,1.381,2.76,3.455,2.76,6.216
			c0,2.535-1.15,4.605-3.221,6.221c-2.07,1.61-4.832,2.301-8.291,2.301c-3.451,0-6.449-0.921-8.98-2.531
			c-2.531-1.845-3.682-4.375-3.682-7.37v-0.23h6.213c0,1.841,0.459,3.226,1.617,4.146c1.15,0.92,2.762,1.381,4.832,1.381
			c1.611,0,2.992-0.461,3.92-1.15C483.283,46.647,483.744,45.726,483.744,44.571L483.744,44.571z"/>
		<path style="fill:#E1EFFA;" d="M632.51,44.571c0-1.15-0.459-2.301-1.381-2.99c-0.92-0.694-2.301-1.385-4.379-2.075
			c-3.912-0.92-6.672-2.301-8.521-3.686c-1.84-1.61-2.76-3.685-2.76-6.216c0-2.535,0.92-4.606,3.221-6.22
			c2.078-1.611,4.84-2.531,8.291-2.531c3.459,0,6.221,0.92,8.522,2.761c2.078,1.845,3.228,4.146,2.998,6.91l0,0h-5.99
			c0-1.38-0.459-2.53-1.609-3.455c-0.922-0.92-2.301-1.38-3.92-1.38c-1.84,0-2.992,0.46-3.912,1.15
			c-0.92,0.691-1.381,1.845-1.381,2.995c0,0.92,0.461,1.84,1.381,2.534c0.92,0.691,2.762,1.381,5.07,2.071
			c3.451,0.92,6.213,2.305,7.822,3.915c1.85,1.381,2.77,3.455,2.77,6.216c0,2.535-1.15,4.605-3.228,6.221
			c-2.072,1.61-4.832,2.301-8.291,2.301c-3.451,0-6.443-0.921-8.982-2.531c-2.529-1.845-3.68-4.375-3.68-7.37v-0.23h6.219
			c0,1.841,0.461,3.226,1.611,4.146c1.15,0.92,2.762,1.381,4.832,1.381c1.617,0,2.998-0.461,3.918-1.15
			C632.051,46.647,632.51,45.726,632.51,44.571L632.51,44.571z M662.682,39.046h-12.9v8.751h15.201v4.836h-21.42V21.314h21.42v4.836
			h-15.201v8.061h12.9V39.046z M690.775,26.149h-8.75v26.483h-6.221V26.149h-8.981v-4.836h23.951V26.149z M718.639,52.633h-6.219
			V26.84h-6.443v-4.376l12.662-1.15V52.633z M736.141,34.44h3.451c1.619,0,2.539-0.46,3.461-1.15c0.69-0.921,0.92-1.845,0.92-3.225
			c0-1.38-0.23-2.305-0.92-3.225c-0.922-0.69-1.842-1.15-3.223-1.15c-1.158,0-2.078,0.46-2.998,1.15
			c-0.691,0.691-1.15,1.614-1.15,2.765h-5.99l-0.231-0.231c0-2.534,0.92-4.375,3-5.989c1.84-1.611,4.371-2.531,7.131-2.531
			c3.23,0,5.99,0.92,7.832,2.301c1.848,1.614,2.998,3.915,2.998,6.681c0,1.38-0.459,2.765-1.381,3.915
			c-0.928,1.15-2.078,2.301-3.459,2.995c1.611,0.46,3,1.38,3.92,2.761c0.92,1.15,1.381,2.765,1.381,4.376
			c0,2.994-1.15,5.065-3.229,6.91c-2.072,1.61-4.832,2.301-8.063,2.301c-2.76,0-5.291-0.69-7.361-2.301
			c-2.078-1.615-3.228-3.686-3-6.45v-0.23h5.99c0,1.154,0.461,2.305,1.381,2.995c0.92,0.691,1.84,1.15,3.229,1.15
			c1.381,0,2.531-0.46,3.451-1.15c0.922-0.69,1.15-1.841,1.15-3.225c0-1.611-0.229-2.995-1.15-3.686c-0.92-0.69-2.07-1.15-3.69-1.15
			h-3.451V34.44z"/>
	</g>
</g>
</svg>